<?xml version="1.0" encoding="UTF-8" standalone="no"?>
<svg width="14px" height="12px" viewBox="0 0 14 12" version="1.1" xmlns="http://www.w3.org/2000/svg" xmlns:xlink="http://www.w3.org/1999/xlink" xmlns:sketch="http://www.bohemiancoding.com/sketch/ns">
    <!-- Generator: Sketch 3.4.4 (17249) - http://www.bohemiancoding.com/sketch -->
    <title>Fill 178</title>
    <desc>Created with Sketch.</desc>
    <defs></defs>
    <g id="Page-1" stroke="none" stroke-width="1" fill="none" fill-rule="evenodd" sketch:type="MSPage">
        <g id="Project-review---student-view-1-Copy" sketch:type="MSArtboardGroup" transform="translate(-899.000000, -119.000000)" fill="#02B3E4">
            <g id="Fill-178-+-Share" sketch:type="MSLayerGroup" transform="translate(899.000000, 110.000000)">
                <path d="M4.39584389,20.3717182 C5.41550938,20.3717182 6.37060314,20.2127724 7.27886467,19.8941713 C8.17080588,19.5592499 8.93502281,19.1292448 9.57222504,18.5878358 C10.1931069,18.0464268 10.7508363,17.4255449 11.2127724,16.7244805 C11.6583882,16.0078054 12.0089204,15.2748099 12.2317283,14.510593 C12.4552458,13.7463761 12.5666498,12.9814496 12.5666498,12.2009123 L12.5666498,11.8347694 C13.1236695,11.4210846 13.601926,10.9272174 14,10.3538773 C13.4422707,10.5766853 12.9008616,10.735631 12.3431323,10.7838824 C12.9647238,10.4170299 13.3947288,9.89194121 13.601926,9.20719716 C13.0441967,9.54140902 12.4389255,9.78053725 11.7861125,9.90755195 C11.2127724,9.30228079 10.5117081,9 9.68362899,9 C8.90309174,9 8.21834769,9.27034972 7.66061835,9.82807907 C7.10359858,10.4014192 6.81692854,11.0705525 6.81692854,11.8667005 C6.81692854,12.0738976 6.8488596,12.2967055 6.89640142,12.5195134 C5.71779017,12.4719716 4.6186518,12.1689812 3.58337557,11.6438925 C2.56441967,11.1024835 1.6880892,10.4014192 0.97141409,9.52579828 C0.716675114,9.97141409 0.573340091,10.448961 0.573340091,10.9747592 C0.573340091,11.4523061 0.701064369,11.9142423 0.923872276,12.3442473 C1.16300051,12.7586417 1.4652813,13.0928535 1.8633553,13.3639128 C1.40141916,13.3475925 0.97141409,13.2205778 0.557729346,12.9977699 L0.557729346,13.029701 C0.557729346,13.7300558 0.780537253,14.3353269 1.21054232,14.8611252 C1.65615813,15.3869235 2.19756716,15.704815 2.86670046,15.84815 C2.61196148,15.9120122 2.3572225,15.9439432 2.10248353,15.9439432 C1.94282818,15.9439432 1.76756209,15.9283325 1.56107451,15.8964014 C1.75195134,16.4697415 2.0861632,16.9472884 2.58003041,17.3141409 C3.07389762,17.6958946 3.63162696,17.8867714 4.25250887,17.8867714 C3.2016219,18.7155601 2.02301064,19.1136341 0.684744045,19.1136341 C0.430005068,19.1136341 0.207197162,19.1136341 0,19.081703 C1.32194627,19.9417131 2.80283832,20.3717182 4.39584389,20.3717182" id="Fill-178" sketch:type="MSShapeGroup"></path>
            </g>
        </g>
    </g>
</svg>